<svg width="608" height="749" viewBox="0 0 608 749" fill="none" xmlns="http://www.w3.org/2000/svg">
<rect x="25" width="558" height="660" rx="32" fill="#0D0D0D"/>
<g clip-path="url(#clip0_193_364)">
<rect y="31" width="608" height="718" rx="32" fill="#111111"/>
<path d="M61.7341 252.313L25.0322 328.874C21.6926 335.84 12.7364 337.882 6.70762 333.051L-39.9963 295.628C-47.852 289.333 -59.5 294.926 -59.5 304.992V768.59C-59.5 775.182 -54.1825 780.54 -47.5906 780.59L658.044 785.917C664.249 785.964 669.467 781.272 670.077 775.097L696.028 512.277C696.331 509.211 695.442 506.145 693.547 503.715L594.58 376.901C588.727 369.401 576.892 371.369 573.78 380.358L567.439 398.677C564.021 408.551 550.493 409.643 545.535 400.445L478.899 276.807C476.805 272.922 472.749 270.5 468.336 270.5H412.77C407.791 270.5 403.329 273.575 401.556 278.228L376.525 343.935C374.454 349.372 367.896 351.514 363.015 348.347C358.289 345.282 351.943 347.181 349.678 352.337L334.314 387.303C330.4 396.21 318.071 397.002 313.05 388.669L264.75 308.519C260.478 301.43 250.48 300.693 245.214 307.078L228.601 327.222C222.866 334.175 211.799 332.561 208.29 324.259L178.097 252.828C176.22 248.386 171.866 245.5 167.044 245.5H72.555C67.9378 245.5 63.7301 248.149 61.7341 252.313Z" fill="url(#paint0_linear_193_364)" stroke="#F7E500"/>
<rect x="29" y="60" width="137" height="48" rx="24" fill="#171717"/>
<path d="M52.856 89V79.064H49.128V77.8H58.04V79.064H54.312V89H52.856ZM61.0604 89.192C58.5644 89.192 57.0604 87.608 57.0604 85C57.0604 82.568 58.5804 80.808 61.0604 80.808C63.5084 80.808 65.0444 82.584 65.0444 85C65.0444 87.512 63.4604 89.192 61.0604 89.192ZM58.6124 85C58.6124 86.072 58.8044 86.92 59.3164 87.448C59.7004 87.848 60.2604 88.056 61.0604 88.056C61.8764 88.056 62.4524 87.816 62.8364 87.384C63.3004 86.856 63.4924 86.04 63.4924 85C63.4924 83.96 63.3004 83.128 62.8204 82.6C62.4364 82.184 61.8764 81.944 61.0604 81.944C60.2764 81.944 59.7004 82.152 59.3164 82.552C58.8044 83.08 58.6124 83.928 58.6124 85ZM66.681 89V77.8H68.121V84.312L71.465 81H73.417L70.249 83.928L73.561 89H71.881L69.241 84.888L68.121 85.944V89H66.681ZM77.6511 89.192C76.4191 89.192 75.4591 88.824 74.7711 88.024C74.0991 87.272 73.7951 86.232 73.7951 84.984C73.7951 83.8 74.1311 82.76 74.8031 82.008C75.5071 81.208 76.4831 80.808 77.6351 80.808C78.8991 80.808 80.0991 81.352 80.7551 82.392C81.2351 83.16 81.4911 84.296 81.4271 85.432H75.3631C75.3951 87.192 76.1311 88.04 77.6351 88.04C78.9951 88.04 79.7311 87.464 79.9231 86.248L81.3151 86.36C80.9631 88.232 79.6831 89.192 77.6511 89.192ZM75.3791 84.264H79.9551C79.9391 83.832 79.7791 83.224 79.5231 82.84C79.1071 82.232 78.5151 81.976 77.6511 81.976C76.7551 81.976 76.0831 82.312 75.7631 82.84C75.4751 83.32 75.3791 83.864 75.3791 84.264ZM83.056 89V81H84.496V82.216C84.896 81.32 85.68 80.808 86.96 80.808C88.016 80.808 88.768 81.096 89.344 81.704C89.952 82.36 89.968 83.4 89.968 84.248V89H88.48V84.328C88.48 83.592 88.496 82.936 88 82.472C87.552 82.024 87.024 82.008 86.576 82.008C85.872 82.008 84.496 82.296 84.496 84.584V89H83.056ZM99.6836 89.192C97.2196 89.192 95.0596 87.96 95.0596 85.352L96.5956 85.192C96.5956 86.984 97.9076 87.976 99.6356 87.976C101.284 87.976 102.692 87.48 102.692 85.848C102.692 84.296 100.708 84.328 99.0276 83.928C97.2836 83.512 95.3636 82.904 95.3636 80.76C95.3636 78.472 97.5076 77.608 99.3316 77.608C101.652 77.608 103.556 78.52 103.796 81.176L102.292 81.448C102.26 79.768 101.14 78.808 99.2996 78.808C98.2116 78.808 96.8516 79.384 96.8516 80.696C96.8516 81.96 98.5476 82.36 100.068 82.6C102.292 82.952 104.196 83.352 104.196 85.736C104.196 88.456 101.844 89.192 99.6836 89.192ZM107.518 89L104.846 81H106.398L107.646 85.272C107.694 85.432 108.03 86.648 108.286 87.624C108.462 86.84 108.734 85.656 108.83 85.272L109.902 81H111.246L112.302 85.272C112.43 85.8 112.654 86.808 112.83 87.624C113.07 86.696 113.278 85.912 113.47 85.272L114.75 81H116.302L113.63 89H112.078L111.006 84.872C110.926 84.568 110.718 83.576 110.558 82.776C110.414 83.528 110.254 84.344 110.126 84.872L109.086 89H107.518ZM119.641 89.192C118.297 89.192 116.953 88.456 116.953 86.888C116.953 85.16 118.409 84.68 119.673 84.44L122.313 83.928C122.313 83.208 122.281 82.808 122.041 82.472C121.817 82.152 121.289 81.944 120.585 81.944C119.193 81.944 118.633 82.456 118.633 83.672L117.225 83.48C117.257 82.52 117.593 81.816 118.217 81.4C118.793 81.016 119.641 80.808 120.665 80.808C122.681 80.808 123.705 81.704 123.705 83.448V87.272C123.705 87.688 123.705 87.88 124.169 87.88C124.297 87.88 124.425 87.864 124.633 87.816L124.665 89C124.361 89.048 124.089 89.064 123.769 89.064C122.889 89.064 122.409 88.648 122.329 87.816C121.881 88.728 121.001 89.192 119.641 89.192ZM118.424 86.872C118.424 87.624 119.081 88.04 119.865 88.04C121.609 88.04 122.313 87.128 122.313 85.976V85L119.897 85.528C119.049 85.72 118.424 85.96 118.424 86.872ZM126.009 92.2V81H127.449V82.168C128.041 81.256 128.905 80.808 129.977 80.808C132.105 80.808 133.657 82.392 133.657 85C133.657 87.528 132.185 89.192 130.025 89.192C128.905 89.192 128.057 88.808 127.449 87.96V92.2H126.009ZM127.401 84.984C127.401 86.472 127.737 88.04 129.689 88.04C130.425 88.04 130.969 87.848 131.337 87.496C131.865 86.984 132.073 86.136 132.073 85C132.073 83.128 131.593 81.944 129.721 81.944C128.969 81.944 128.393 82.184 128.009 82.68C127.609 83.192 127.401 83.96 127.401 84.984ZM138.186 89.192C136.394 89.192 134.778 88.36 134.794 86.376L136.106 86.248C136.09 87.368 136.906 88.056 138.154 88.056C139.466 88.056 140.122 87.608 140.122 86.76C140.122 85.848 138.65 85.736 137.546 85.448C136.25 85.112 134.97 84.728 134.97 83.144C134.97 81.48 136.506 80.808 137.93 80.808C139.626 80.808 141.098 81.48 141.274 83.432L139.93 83.64C139.898 82.536 139.178 81.944 137.914 81.944C137.13 81.944 136.314 82.312 136.314 83.048C136.314 83.784 137.274 83.992 138.234 84.2C139.834 84.536 141.482 84.808 141.482 86.68C141.482 88.632 139.802 89.192 138.186 89.192ZM142.975 89V87.304H144.591V89H142.975ZM142.975 83.256V81.56H144.591V83.256H142.975Z" fill="white"/>
<rect x="117" y="119" width="173" height="48" rx="24" fill="#171717"/>
<path d="M142.984 148.192C139.592 148.192 137.672 146.128 137.672 142.4C137.672 139.008 139.544 136.608 142.984 136.608C145.272 136.608 147.208 137.776 147.832 140.112L146.248 140.416C145.912 139.072 144.824 137.856 143.016 137.856C141.736 137.856 140.712 138.272 140.104 139.12C139.56 139.888 139.304 140.96 139.304 142.4C139.304 143.856 139.56 144.912 140.104 145.696C140.68 146.512 141.704 146.944 142.984 146.944C144.808 146.944 145.832 145.856 146.28 144.576L147.928 145.008C147.032 147.056 145.336 148.192 142.984 148.192ZM149.306 148V140H150.746V141.408C150.97 140.64 151.914 139.92 153.226 139.824C153.354 139.808 153.658 139.808 153.77 139.808L153.738 141.168C153.642 141.152 153.514 141.152 153.37 141.152C151.85 141.152 150.746 141.632 150.746 144.208V148H149.306ZM158.154 148.192C155.658 148.192 154.154 146.608 154.154 144C154.154 141.568 155.674 139.808 158.154 139.808C160.602 139.808 162.138 141.584 162.138 144C162.138 146.512 160.554 148.192 158.154 148.192ZM155.706 144C155.706 145.072 155.898 145.92 156.41 146.448C156.794 146.848 157.354 147.056 158.154 147.056C158.97 147.056 159.546 146.816 159.93 146.384C160.394 145.856 160.586 145.04 160.586 144C160.586 142.96 160.394 142.128 159.914 141.6C159.53 141.184 158.97 140.944 158.154 140.944C157.37 140.944 156.794 141.152 156.41 141.552C155.898 142.08 155.706 142.928 155.706 144ZM166.655 148.192C164.863 148.192 163.247 147.36 163.263 145.376L164.575 145.248C164.559 146.368 165.375 147.056 166.623 147.056C167.935 147.056 168.591 146.608 168.591 145.76C168.591 144.848 167.119 144.736 166.015 144.448C164.719 144.112 163.439 143.728 163.439 142.144C163.439 140.48 164.975 139.808 166.399 139.808C168.095 139.808 169.567 140.48 169.743 142.432L168.399 142.64C168.367 141.536 167.647 140.944 166.383 140.944C165.599 140.944 164.783 141.312 164.783 142.048C164.783 142.784 165.743 142.992 166.703 143.2C168.303 143.536 169.951 143.808 169.951 145.68C169.951 147.632 168.271 148.192 166.655 148.192ZM174.452 148.192C172.66 148.192 171.044 147.36 171.06 145.376L172.372 145.248C172.356 146.368 173.172 147.056 174.42 147.056C175.732 147.056 176.388 146.608 176.388 145.76C176.388 144.848 174.916 144.736 173.812 144.448C172.516 144.112 171.236 143.728 171.236 142.144C171.236 140.48 172.772 139.808 174.196 139.808C175.892 139.808 177.364 140.48 177.54 142.432L176.196 142.64C176.164 141.536 175.444 140.944 174.18 140.944C173.396 140.944 172.58 141.312 172.58 142.048C172.58 142.784 173.54 142.992 174.5 143.2C176.1 143.536 177.748 143.808 177.748 145.68C177.748 147.632 176.068 148.192 174.452 148.192ZM186.435 148.192C183.987 148.192 182.467 146.624 182.467 144C182.467 141.536 183.987 139.808 186.435 139.808C188.467 139.808 189.619 141.024 189.939 142.544L188.595 142.8C188.355 141.872 187.875 140.96 186.435 140.96C185.523 140.96 184.947 141.232 184.579 141.712C184.179 142.256 184.051 143.056 184.051 144C184.051 145.808 184.499 147.04 186.435 147.04C187.667 147.04 188.307 146.56 188.611 145.408L189.971 145.552C189.683 147.168 188.291 148.192 186.435 148.192ZM191.447 148V136.8H192.887V141.2C193.335 140.24 194.231 139.808 195.351 139.808C196.407 139.808 197.159 140.096 197.735 140.704C198.343 141.36 198.359 142.368 198.359 143.216V148H196.871V143.296C196.871 142.56 196.887 141.936 196.391 141.472C195.943 141.024 195.415 141.008 194.967 141.008C194.247 141.008 192.887 141.184 192.887 143.504V148H191.447ZM202.656 148.192C201.312 148.192 199.968 147.456 199.968 145.888C199.968 144.16 201.424 143.68 202.688 143.44L205.328 142.928C205.328 142.208 205.296 141.808 205.056 141.472C204.832 141.152 204.304 140.944 203.6 140.944C202.208 140.944 201.648 141.456 201.648 142.672L200.24 142.48C200.272 141.52 200.608 140.816 201.232 140.4C201.808 140.016 202.656 139.808 203.68 139.808C205.696 139.808 206.72 140.704 206.72 142.448V146.272C206.72 146.688 206.72 146.88 207.184 146.88C207.312 146.88 207.44 146.864 207.648 146.816L207.68 148C207.376 148.048 207.104 148.064 206.784 148.064C205.904 148.064 205.424 147.648 205.344 146.816C204.896 147.728 204.016 148.192 202.656 148.192ZM201.44 145.872C201.44 146.624 202.096 147.04 202.88 147.04C204.624 147.04 205.328 146.128 205.328 144.976V144L202.912 144.528C202.064 144.72 201.44 144.96 201.44 145.872ZM209.025 148V140H210.465V148H209.025ZM209.025 138.496V136.8H210.465V138.496H209.025ZM212.572 148V140H214.012V141.216C214.412 140.32 215.196 139.808 216.476 139.808C217.532 139.808 218.284 140.096 218.86 140.704C219.468 141.36 219.484 142.4 219.484 143.248V148H217.996V143.328C217.996 142.592 218.012 141.936 217.516 141.472C217.068 141.024 216.54 141.008 216.092 141.008C215.388 141.008 214.012 141.296 214.012 143.584V148H212.572ZM227.967 148.192C226.175 148.192 224.559 147.36 224.575 145.376L225.887 145.248C225.871 146.368 226.687 147.056 227.935 147.056C229.247 147.056 229.903 146.608 229.903 145.76C229.903 144.848 228.431 144.736 227.327 144.448C226.031 144.112 224.751 143.728 224.751 142.144C224.751 140.48 226.287 139.808 227.711 139.808C229.407 139.808 230.879 140.48 231.055 142.432L229.711 142.64C229.679 141.536 228.959 140.944 227.695 140.944C226.911 140.944 226.095 141.312 226.095 142.048C226.095 142.784 227.055 142.992 228.015 143.2C229.615 143.536 231.263 143.808 231.263 145.68C231.263 147.632 229.583 148.192 227.967 148.192ZM234.518 148L231.846 140H233.398L234.646 144.272C234.694 144.432 235.03 145.648 235.286 146.624C235.462 145.84 235.734 144.656 235.83 144.272L236.902 140H238.246L239.302 144.272C239.43 144.8 239.654 145.808 239.83 146.624C240.07 145.696 240.278 144.912 240.47 144.272L241.75 140H243.302L240.63 148H239.078L238.006 143.872C237.926 143.568 237.718 142.576 237.558 141.776C237.414 142.528 237.254 143.344 237.126 143.872L236.086 148H234.518ZM246.641 148.192C245.297 148.192 243.953 147.456 243.953 145.888C243.953 144.16 245.409 143.68 246.673 143.44L249.313 142.928C249.313 142.208 249.281 141.808 249.041 141.472C248.817 141.152 248.289 140.944 247.585 140.944C246.193 140.944 245.633 141.456 245.633 142.672L244.225 142.48C244.257 141.52 244.593 140.816 245.217 140.4C245.793 140.016 246.641 139.808 247.665 139.808C249.681 139.808 250.705 140.704 250.705 142.448V146.272C250.705 146.688 250.705 146.88 251.169 146.88C251.297 146.88 251.425 146.864 251.633 146.816L251.665 148C251.361 148.048 251.089 148.064 250.769 148.064C249.889 148.064 249.409 147.648 249.329 146.816C248.881 147.728 248.001 148.192 246.641 148.192ZM245.424 145.872C245.424 146.624 246.081 147.04 246.865 147.04C248.609 147.04 249.313 146.128 249.313 144.976V144L246.897 144.528C246.049 144.72 245.424 144.96 245.424 145.872ZM253.009 151.2V140H254.449V141.168C255.041 140.256 255.905 139.808 256.977 139.808C259.105 139.808 260.657 141.392 260.657 144C260.657 146.528 259.185 148.192 257.025 148.192C255.905 148.192 255.057 147.808 254.449 146.96V151.2H253.009ZM254.401 143.984C254.401 145.472 254.737 147.04 256.689 147.04C257.425 147.04 257.969 146.848 258.337 146.496C258.865 145.984 259.073 145.136 259.073 144C259.073 142.128 258.593 140.944 256.721 140.944C255.969 140.944 255.393 141.184 255.009 141.68C254.609 142.192 254.401 142.96 254.401 143.984ZM265.186 148.192C263.394 148.192 261.778 147.36 261.794 145.376L263.106 145.248C263.09 146.368 263.906 147.056 265.154 147.056C266.466 147.056 267.122 146.608 267.122 145.76C267.122 144.848 265.65 144.736 264.546 144.448C263.25 144.112 261.97 143.728 261.97 142.144C261.97 140.48 263.506 139.808 264.93 139.808C266.626 139.808 268.098 140.48 268.274 142.432L266.93 142.64C266.898 141.536 266.178 140.944 264.914 140.944C264.13 140.944 263.314 141.312 263.314 142.048C263.314 142.784 264.274 142.992 265.234 143.2C266.834 143.536 268.482 143.808 268.482 145.68C268.482 147.632 266.802 148.192 265.186 148.192Z" fill="white"/>
<rect x="301" y="119" width="166" height="48" rx="24" fill="#171717"/>
<path d="M322.328 148V136.8H326.104C328.104 136.8 330.52 137.152 330.52 140.192C330.52 143.136 328.104 143.456 326.088 143.456H323.768V148H322.328ZM323.768 142.224H326.088C327.464 142.224 329.112 142.128 329.112 140.192C329.112 138.08 327.464 138.048 326.104 138.048H323.768V142.224ZM335.151 148.192C333.919 148.192 332.959 147.824 332.271 147.024C331.599 146.272 331.295 145.232 331.295 143.984C331.295 142.8 331.631 141.76 332.303 141.008C333.007 140.208 333.983 139.808 335.135 139.808C336.399 139.808 337.599 140.352 338.255 141.392C338.735 142.16 338.991 143.296 338.927 144.432H332.863C332.895 146.192 333.631 147.04 335.135 147.04C336.495 147.04 337.231 146.464 337.423 145.248L338.815 145.36C338.463 147.232 337.183 148.192 335.151 148.192ZM332.879 143.264H337.455C337.439 142.832 337.279 142.224 337.023 141.84C336.607 141.232 336.015 140.976 335.151 140.976C334.255 140.976 333.583 141.312 333.263 141.84C332.975 142.32 332.879 142.864 332.879 143.264ZM340.556 148V140H341.996V141.408C342.22 140.64 343.164 139.92 344.476 139.824C344.604 139.808 344.908 139.808 345.02 139.808L344.988 141.168C344.892 141.152 344.764 141.152 344.62 141.152C343.1 141.152 341.996 141.632 341.996 144.208V148H340.556ZM346.197 151.2V140H347.637V141.168C348.229 140.256 349.093 139.808 350.165 139.808C352.293 139.808 353.845 141.392 353.845 144C353.845 146.528 352.373 148.192 350.213 148.192C349.093 148.192 348.245 147.808 347.637 146.96V151.2H346.197ZM347.589 143.984C347.589 145.472 347.925 147.04 349.877 147.04C350.613 147.04 351.157 146.848 351.525 146.496C352.053 145.984 352.261 145.136 352.261 144C352.261 142.128 351.781 140.944 349.909 140.944C349.157 140.944 348.581 141.184 348.197 141.68C347.797 142.192 347.589 142.96 347.589 143.984ZM358.886 148.192C357.654 148.192 356.694 147.824 356.006 147.024C355.334 146.272 355.03 145.232 355.03 143.984C355.03 142.8 355.366 141.76 356.038 141.008C356.742 140.208 357.718 139.808 358.87 139.808C360.134 139.808 361.334 140.352 361.99 141.392C362.47 142.16 362.726 143.296 362.661 144.432H356.598C356.63 146.192 357.366 147.04 358.87 147.04C360.23 147.04 360.966 146.464 361.158 145.248L362.55 145.36C362.198 147.232 360.918 148.192 358.886 148.192ZM356.614 143.264H361.19C361.174 142.832 361.014 142.224 360.758 141.84C360.342 141.232 359.75 140.976 358.886 140.976C357.99 140.976 357.318 141.312 356.998 141.84C356.71 142.32 356.614 142.864 356.614 143.264ZM366.757 148.08C365.269 148.08 364.613 147.504 364.613 146.208V141.2H363.461V140H364.613V137.776H366.037V140H367.669V141.2H366.037V146.16C366.037 146.688 366.277 146.784 366.869 146.784C367.045 146.784 367.349 146.752 367.605 146.704L367.637 148C367.381 148.048 367.045 148.08 366.757 148.08ZM372 148.192C370.96 148.192 370.208 147.904 369.632 147.296C369.008 146.64 368.992 145.632 368.992 144.784V140H370.48V144.704C370.48 145.44 370.464 146.064 370.944 146.528C371.408 146.976 371.936 146.992 372.4 146.992C373.12 146.992 374.464 146.816 374.464 144.496V140H375.904V148H374.464V146.8C374.032 147.712 373.136 148.192 372 148.192ZM380.281 148.192C378.937 148.192 377.593 147.456 377.593 145.888C377.593 144.16 379.049 143.68 380.313 143.44L382.953 142.928C382.953 142.208 382.921 141.808 382.681 141.472C382.457 141.152 381.929 140.944 381.225 140.944C379.833 140.944 379.273 141.456 379.273 142.672L377.865 142.48C377.897 141.52 378.233 140.816 378.857 140.4C379.433 140.016 380.281 139.808 381.305 139.808C383.321 139.808 384.345 140.704 384.345 142.448V146.272C384.345 146.688 384.345 146.88 384.809 146.88C384.937 146.88 385.065 146.864 385.273 146.816L385.305 148C385.001 148.048 384.729 148.064 384.409 148.064C383.529 148.064 383.049 147.648 382.969 146.816C382.521 147.728 381.641 148.192 380.281 148.192ZM379.065 145.872C379.065 146.624 379.721 147.04 380.505 147.04C382.249 147.04 382.953 146.128 382.953 144.976V144L380.537 144.528C379.689 144.72 379.065 144.96 379.065 145.872ZM386.65 148V136.8H388.09V148H386.65ZM394.047 148V136.8H401.279V138.096H395.487V141.696H400.687V142.992H395.487V148H394.047ZM405.375 148.192C404.335 148.192 403.583 147.904 403.007 147.296C402.383 146.64 402.367 145.632 402.367 144.784V140H403.855V144.704C403.855 145.44 403.839 146.064 404.319 146.528C404.783 146.976 405.311 146.992 405.775 146.992C406.495 146.992 407.839 146.816 407.839 144.496V140H409.279V148H407.839V146.8C407.407 147.712 406.511 148.192 405.375 148.192ZM413.976 148.08C412.488 148.08 411.832 147.504 411.832 146.208V141.2H410.68V140H411.832V137.776H413.256V140H414.888V141.2H413.256V146.16C413.256 146.688 413.496 146.784 414.088 146.784C414.264 146.784 414.568 146.752 414.824 146.704L414.856 148C414.6 148.048 414.264 148.08 413.976 148.08ZM419.218 148.192C418.178 148.192 417.426 147.904 416.85 147.296C416.226 146.64 416.21 145.632 416.21 144.784V140H417.698V144.704C417.698 145.44 417.682 146.064 418.162 146.528C418.626 146.976 419.154 146.992 419.618 146.992C420.338 146.992 421.682 146.816 421.682 144.496V140H423.122V148H421.682V146.8C421.25 147.712 420.354 148.192 419.218 148.192ZM425.228 148V140H426.668V141.408C426.892 140.64 427.836 139.92 429.148 139.824C429.276 139.808 429.58 139.808 429.692 139.808L429.66 141.168C429.564 141.152 429.436 141.152 429.292 141.152C427.772 141.152 426.668 141.632 426.668 144.208V148H425.228ZM433.948 148.192C432.716 148.192 431.756 147.824 431.068 147.024C430.396 146.272 430.092 145.232 430.092 143.984C430.092 142.8 430.428 141.76 431.1 141.008C431.804 140.208 432.78 139.808 433.932 139.808C435.196 139.808 436.396 140.352 437.052 141.392C437.532 142.16 437.788 143.296 437.724 144.432H431.66C431.692 146.192 432.428 147.04 433.932 147.04C435.292 147.04 436.028 146.464 436.22 145.248L437.612 145.36C437.26 147.232 435.98 148.192 433.948 148.192ZM431.676 143.264H436.252C436.236 142.832 436.076 142.224 435.82 141.84C435.404 141.232 434.812 140.976 433.948 140.976C433.052 140.976 432.38 141.312 432.06 141.84C431.772 142.32 431.676 142.864 431.676 143.264ZM442.233 148.192C440.441 148.192 438.825 147.36 438.841 145.376L440.153 145.248C440.137 146.368 440.953 147.056 442.201 147.056C443.513 147.056 444.169 146.608 444.169 145.76C444.169 144.848 442.697 144.736 441.593 144.448C440.297 144.112 439.017 143.728 439.017 142.144C439.017 140.48 440.553 139.808 441.977 139.808C443.673 139.808 445.145 140.48 445.321 142.432L443.977 142.64C443.945 141.536 443.225 140.944 441.961 140.944C441.177 140.944 440.361 141.312 440.361 142.048C440.361 142.784 441.321 142.992 442.281 143.2C443.881 143.536 445.529 143.808 445.529 145.68C445.529 147.632 443.849 148.192 442.233 148.192Z" fill="white"/>
<rect x="442" y="60" width="137" height="48" rx="24" fill="#171717"/>
<path d="M466.112 89V84.216L462.096 77.8H463.776L465.664 81C465.776 81.192 466.416 82.312 466.832 83.064C467.296 82.232 467.648 81.608 468 81L469.888 77.8H471.584L467.568 84.216V89H466.112ZM472.618 89V81H474.059V89H472.618ZM472.618 79.496V77.8H474.059V79.496H472.618ZM479.557 89.192C478.325 89.192 477.365 88.824 476.677 88.024C476.005 87.272 475.701 86.232 475.701 84.984C475.701 83.8 476.037 82.76 476.709 82.008C477.413 81.208 478.389 80.808 479.541 80.808C480.805 80.808 482.005 81.352 482.661 82.392C483.141 83.16 483.397 84.296 483.333 85.432H477.269C477.301 87.192 478.037 88.04 479.541 88.04C480.901 88.04 481.637 87.464 481.829 86.248L483.221 86.36C482.869 88.232 481.589 89.192 479.557 89.192ZM477.285 84.264H481.861C481.845 83.832 481.685 83.224 481.429 82.84C481.013 82.232 480.421 81.976 479.557 81.976C478.661 81.976 477.989 82.312 477.669 82.84C477.381 83.32 477.285 83.864 477.285 84.264ZM484.962 89V77.8H486.402V89H484.962ZM491.725 89.192C489.597 89.192 488.045 87.608 488.045 85C488.045 82.472 489.517 80.808 491.677 80.808C492.797 80.808 493.645 81.192 494.253 82.04V77.8H495.693V89H494.253V87.832C493.661 88.744 492.797 89.192 491.725 89.192ZM489.629 85C489.629 86.872 490.109 88.056 491.981 88.056C492.653 88.056 493.165 87.864 493.549 87.48C494.045 86.984 494.301 86.152 494.301 85.016C494.301 83.528 493.965 81.96 492.013 81.96C491.197 81.96 490.621 82.2 490.253 82.632C489.805 83.16 489.629 83.96 489.629 85ZM501.656 89V77.8H508.888V79.096H503.096V82.696H508.296V83.992H503.096V89H501.656ZM512.234 89.192C510.89 89.192 509.546 88.456 509.546 86.888C509.546 85.16 511.002 84.68 512.266 84.44L514.906 83.928C514.906 83.208 514.874 82.808 514.634 82.472C514.41 82.152 513.882 81.944 513.178 81.944C511.786 81.944 511.226 82.456 511.226 83.672L509.818 83.48C509.85 82.52 510.186 81.816 510.81 81.4C511.386 81.016 512.234 80.808 513.258 80.808C515.274 80.808 516.298 81.704 516.298 83.448V87.272C516.298 87.688 516.298 87.88 516.762 87.88C516.89 87.88 517.018 87.864 517.226 87.816L517.258 89C516.954 89.048 516.682 89.064 516.362 89.064C515.482 89.064 515.002 88.648 514.922 87.816C514.474 88.728 513.594 89.192 512.234 89.192ZM511.018 86.872C511.018 87.624 511.674 88.04 512.458 88.04C514.202 88.04 514.906 87.128 514.906 85.976V85L512.49 85.528C511.642 85.72 511.018 85.96 511.018 86.872ZM518.603 89V81H520.043V82.408C520.267 81.64 521.211 80.92 522.523 80.824C522.651 80.808 522.955 80.808 523.067 80.808L523.035 82.168C522.939 82.152 522.811 82.152 522.667 82.152C521.147 82.152 520.043 82.632 520.043 85.208V89H518.603ZM524.243 89V81H525.668V82.2C525.764 81.96 525.924 81.688 526.26 81.416C526.628 81.112 527.204 80.808 528.132 80.808C529.396 80.808 530.308 81.432 530.692 82.504C530.852 82.072 531.092 81.736 531.46 81.416C531.844 81.096 532.356 80.808 533.332 80.808C535.124 80.808 536.1 81.832 536.1 83.816V89H534.628V84.296C534.628 83.544 534.628 82.888 534.148 82.44C533.7 82.008 533.108 81.992 532.804 81.992C532.324 81.992 531.924 82.152 531.62 82.424C531.236 82.776 530.884 83.304 530.884 84.584V89H529.412V84.296C529.412 83.544 529.412 82.888 528.932 82.44C528.484 82.008 527.891 81.992 527.588 81.992C527.092 81.992 526.692 82.168 526.404 82.424C526.02 82.776 525.668 83.304 525.668 84.584V89H524.243ZM538.134 89V81H539.574V89H538.134ZM538.134 79.496V77.8H539.574V79.496H538.134ZM541.681 89V81H543.121V82.216C543.521 81.32 544.305 80.808 545.585 80.808C546.641 80.808 547.393 81.096 547.969 81.704C548.577 82.36 548.593 83.4 548.593 84.248V89H547.105V84.328C547.105 83.592 547.121 82.936 546.625 82.472C546.177 82.024 545.649 82.008 545.201 82.008C544.497 82.008 543.121 82.296 543.121 84.584V89H541.681ZM553.947 92.28C552.363 92.28 550.618 91.592 550.539 89.576L551.914 89.48C551.979 90.808 552.827 91.16 554.107 91.16C555.403 91.16 556.347 90.376 556.347 88.92V87.56C555.755 88.488 554.923 88.936 553.819 88.936C551.611 88.936 550.155 87.288 550.155 84.792C550.155 82.424 551.627 80.808 553.771 80.808C554.971 80.808 555.787 81.272 556.347 82.12V81H557.786V88.824C557.786 90.968 556.299 92.28 553.947 92.28ZM551.723 84.792C551.723 86.664 552.203 87.784 554.043 87.784C554.795 87.784 555.323 87.528 555.691 87.128C556.219 86.552 556.411 85.656 556.411 84.792C556.411 82.904 555.579 81.96 554.075 81.96C553.259 81.96 552.699 82.184 552.331 82.616C551.883 83.096 551.723 83.848 551.723 84.792Z" fill="white"/>
</g>
<defs>
<linearGradient id="paint0_linear_193_364" x1="314.5" y1="245.5" x2="314.5" y2="555.5" gradientUnits="userSpaceOnUse">
<stop stop-color="#F7E500" stop-opacity="0.05"/>
<stop offset="1" stop-color="#F7E500" stop-opacity="0"/>
</linearGradient>
<clipPath id="clip0_193_364">
<rect y="31" width="608" height="718" rx="32" fill="white"/>
</clipPath>
</defs>
</svg>
