<?xml version="1.0" encoding="UTF-8"?>
<svg version="1.1" xmlns="http://www.w3.org/2000/svg" width="4250" height="699">
    <path
        d="M0 0 C208.89 0 417.78 0 633 0 C633 208.56 633 417.12 633 632 C567.66 632.0825 502.32 632.165 435 632.25 C414.34664063 632.28641602 393.69328125 632.32283203 372.4140625 632.36035156 C347.25 632.37841797 347.25 632.37841797 335.48046875 632.3817749 C327.23660745 632.38551091 318.99285409 632.4002083 310.74902344 632.42230225 C301.24517233 632.44773554 291.74142506 632.45935036 282.23753965 632.4537798 C277.37423731 632.45136655 272.51116717 632.45523473 267.64790726 632.47686052 C263.25069835 632.49629533 258.85388629 632.49731376 254.45665932 632.48360443 C252.86663722 632.48190718 251.27659044 632.4869896 249.6866169 632.49953032 C232.9231383 632.62398451 232.9231383 632.62398451 226.49671364 626.58806062 C221.15107692 620.64287452 220.49476741 614.96432896 220.6171875 607.234375 C221.30809042 601.3969503 223.89373199 597.81012714 228.27124023 594.0480957 C230.89757348 592.07687717 233.22894388 590.82089839 236.2421875 589.546875 C237.28721436 589.10126221 238.33224121 588.65564941 239.40893555 588.1965332 C241.12463745 587.48049927 241.12463745 587.48049927 242.875 586.75 C244.10931958 586.22855523 245.34344467 585.70664986 246.57739258 585.18432617 C259.40846831 579.77011326 272.30537252 574.5116625 285.19638062 569.24223328 C296.26977573 564.71551954 307.32624035 560.14898889 318.375 555.5625 C319.22299164 555.21055573 320.07098328 554.85861145 320.94467163 554.4960022 C325.24421935 552.71147364 329.5435575 550.926441 333.84277344 549.14111328 C341.54041476 545.94483878 349.24003915 542.75334704 356.93951416 539.56149292 C361.20975728 537.79119106 365.47987215 536.02057988 369.75 534.25 C371.45833272 533.54166518 373.16666605 532.83333185 374.875 532.125 C375.720625 531.774375 376.56625 531.42375 377.4375 531.0625 C385.12500057 527.87499976 385.12500057 527.87499976 387.68731689 526.81257629 C389.39626093 526.10398949 391.10520462 525.39540185 392.81414795 524.68681335 C397.07563466 522.91985112 401.3371274 521.15290344 405.59863281 519.38598633 C412.50528348 516.52231661 419.41193144 513.65864046 426.31835938 510.79443359 C427.20161896 510.42813339 428.08487854 510.06183319 428.99490356 509.68443298 C430.77622911 508.94566792 432.5575402 508.206868 434.33883667 507.46803284 C438.68719738 505.66454257 443.03586317 503.86179593 447.38525391 502.06079102 C454.51664303 499.10727285 461.64718995 496.15218143 468.76525879 493.16667175 C471.50110905 492.0194618 474.23845374 490.87584496 476.97595215 489.73257446 C478.82312622 488.959218 480.66794789 488.18025026 482.51269531 487.40112305 C483.59905273 486.94777588 484.68541016 486.49442871 485.8046875 486.02734375 C486.74296387 485.63281006 487.68124023 485.23827637 488.64794922 484.83178711 C491 484 491 484 494 484 C493.56244385 482.96407715 493.1248877 481.9281543 492.67407227 480.86083984 C478.06694476 446.26821138 478.06694476 446.26821138 472.5 432.75 C472.13334229 431.86618652 471.76668457 430.98237305 471.38891602 430.07177734 C469 424.23748059 469 424.23748059 469 422 C468.06357666 422.39566162 467.12715332 422.79132324 466.16235352 423.19897461 C431.23805079 437.95032941 396.20784113 452.44128608 361.1652832 466.90893555 C343.45065775 474.22321574 325.74643328 481.56245308 308.04443359 488.90722656 C302.9530964 491.01959643 297.86136807 493.13102228 292.76953125 495.2421875 C291.92149429 495.59380447 291.07345734 495.94542145 290.19972229 496.30769348 C285.94351323 498.07238543 281.68724386 499.83693179 277.4309082 501.60131836 C269.50199626 504.88828092 261.57359944 508.17646851 253.64703369 511.46908569 C249.94628922 513.00624817 246.24524987 514.54269997 242.54418945 516.07910156 C240.79811184 516.80417175 239.05217506 517.5295812 237.30639648 518.25537109 C232.60035182 520.21181146 227.8913587 522.16078004 223.1781311 524.09985352 C221.02186533 524.99096381 218.87059792 525.8934158 216.71948242 526.796875 C215.38738651 527.34809018 214.05512028 527.89889401 212.72265625 528.44921875 C211.57547119 528.92834717 210.42828613 529.40747559 209.24633789 529.90112305 C202.67311094 532.12614331 196.06275927 532.20166835 189.625 529.5 C184.48161663 526.5041671 180.86461555 521.59384665 179 516 C178.82911081 514.10901306 178.73367733 512.21063129 178.6875 510.3125 C178.65011719 509.31863281 178.61273438 508.32476562 178.57421875 507.30078125 C179.85443898 497.37613816 187.20871775 491.23405596 193.95904541 484.55993652 C195.10179676 483.41543947 196.24366813 482.27006322 197.38473678 481.12388849 C200.51360467 477.9860967 203.65477336 474.86088029 206.79812765 471.73760986 C210.18911562 468.36391963 213.56851164 464.97865252 216.94934082 461.5947876 C222.80537097 455.73666157 228.66867156 449.8858952 234.53699493 444.04008484 C243.02155462 435.58805382 251.49502807 427.12497963 259.96584937 418.65918237 C273.70997893 404.92380408 287.46301463 391.19737948 301.22167969 377.4765625 C314.5857438 364.14922278 327.9455941 350.81768217 341.29980469 337.48046875 C342.12316457 336.65815976 342.94652446 335.83585077 343.79483464 334.98862332 C347.92542457 330.86325361 352.05593184 326.73780115 356.18639803 322.61230755 C390.44479445 288.39536795 424.71765863 254.1929477 459 220 C457.37026273 216.55220166 455.54292699 214.2999859 452.82568359 211.59863281 C451.96494232 210.7380426 451.10420105 209.87745239 450.21737671 208.99078369 C449.28712677 208.07085632 448.35687683 207.15092896 447.3984375 206.203125 C446.43678914 205.24520903 445.47558306 204.28684886 444.51480103 203.32806396 C441.99076718 200.81164875 439.46078409 198.30129893 436.92950439 195.79217529 C434.3452081 193.22837559 431.76659801 190.65887082 429.1875 188.08984375 C424.13054303 183.05430543 419.06727744 178.0251544 414 173 C407.57563618 178.29174697 401.74640695 184.1306499 395.88587952 190.0275116 C394.76381789 191.15272089 393.64152529 192.27769989 392.51902288 193.40246946 C390.08689608 195.84048883 387.65638698 198.28010559 385.22711563 200.72097015 C381.27391858 204.69301363 377.31720749 208.66154495 373.36006165 212.62965393 C368.35949476 217.64459582 363.35987785 222.66048166 358.36137258 227.67747841 C348.54256715 237.53258405 338.71754011 247.38146584 328.89024353 257.22810364 C327.34215485 258.77930268 325.79406984 260.33050537 324.24598843 261.88171166 C321.90017386 264.23225182 319.55435558 266.58278826 317.20852252 268.93330997 C308.37178538 277.78775859 299.5357371 286.6428943 290.70043945 295.4987793 C289.89304923 296.30804657 289.08565901 297.11731385 288.25380241 297.95110438 C275.15926097 311.07656099 262.07210965 324.20936508 248.98720283 337.34442564 C235.54897651 350.83372226 222.10122236 364.31346844 208.64497942 377.78479272 C200.34682374 386.09291897 192.05645567 394.40866546 183.77589738 402.73433147 C178.10348128 408.43629049 172.42198714 414.12909724 166.73323543 419.81475826 C163.45091213 423.09586217 160.17282397 426.38092703 156.9055481 429.67702103 C153.91408924 432.6946963 150.91130323 435.70059879 147.89912181 438.69758538 C146.81203637 439.78325216 145.72916956 440.87316319 144.65102638 441.96771076 C138.21897935 448.49215933 132.3800683 454.34576967 122.625 454.5 C115.96458325 454.25759315 110.09660629 451.14902145 105.5 446.4375 C101.87452692 440.54610625 100.06040537 435.30558452 101.5793457 428.34521484 C104.4413284 419.0666408 108.1040833 410.20125552 111.90701294 401.27508545 C113.51042598 397.51096291 115.0995464 393.7408577 116.68943787 389.9710083 C117.52632999 387.98664706 118.36387207 386.00255981 119.20204163 384.01873779 C123.71539362 373.3288291 128.1418785 362.60350789 132.5625 351.875 C134.15463486 348.01419377 135.74725467 344.15358763 137.33984375 340.29296875 C137.73002182 339.34691772 138.12019989 338.4008667 138.52220154 337.42614746 C142.54463919 327.67502454 146.58321882 317.93061793 150.625 308.1875 C151.14675308 306.92959152 151.14675308 306.92959152 151.67904663 305.64627075 C154.46604248 298.92707007 157.25385974 292.20821031 160.04174805 285.48937988 C162.48656445 279.59725209 164.93099538 273.70496455 167.375 267.8125 C167.72191895 266.97614014 168.06883789 266.13978027 168.42626953 265.27807617 C174.57478171 250.45358327 180.70046111 235.61971329 186.8230896 220.78451538 C194.50581673 202.17174724 202.23912022 183.58030378 210 165 C200.54670562 159.90104316 190.56288995 156.0307785 180.625 152 C178.89307779 151.2946424 177.16130588 150.58891566 175.4296875 149.8828125 C172.91387331 148.85697797 170.39796648 147.83138218 167.88140869 146.80737305 C161.5729835 144.23945817 155.27996903 141.63685805 149 139 C148.82304596 139.55216187 148.64609192 140.10432373 148.46377563 140.67321777 C146.72003782 146.02108699 144.76296946 151.221342 142.5859375 156.40625 C142.25933136 157.1914502 141.93272522 157.97665039 141.59622192 158.78564453 C140.52537672 161.35831359 139.45016686 163.92913443 138.375 166.5 C137.61359702 168.32733429 136.85253568 170.15481098 136.09179688 171.98242188 C134.51271352 175.77529146 132.93216902 179.56754713 131.35058594 183.359375 C128.07148186 191.22410382 124.81028648 199.09624429 121.5489502 206.96835327 C119.78082149 211.23574105 118.01146988 215.5026217 116.2421875 219.76953125 C115.7155249 221.03975883 115.7155249 221.03975883 115.17822266 222.33564758 C113.07405238 227.41041654 110.96920608 232.48490454 108.86383057 237.55917358 C101.06049975 256.36644686 93.27012698 275.17898205 85.5 294 C78.78168651 310.27328603 72.05781462 326.54423933 65.30200195 342.80200195 C62.01446753 350.71550708 58.73635217 358.63254196 55.48840332 366.56239319 C53.93322842 370.35799742 52.37331182 374.15164471 50.81304932 377.94515991 C50.07073037 379.7537799 49.33072759 381.56335249 48.59320068 383.37393188 C47.57192496 385.88065424 46.54267158 388.38396391 45.51171875 390.88671875 C45.21453445 391.62227997 44.91735016 392.35784119 44.61116028 393.11569214 C41.4167604 400.82292103 37.46186999 407.4137503 29.640625 411.1171875 C23.77366294 413.07862748 17.27930989 412.95001779 11.625 410.375 C6.75399843 407.56019991 2.99125997 403.31002657 1 398 C0.13277506 393.66337841 -0.12445935 389.55776677 -0.12304783 385.13970375 C-0.12420157 384.47069592 -0.12535532 383.80168809 -0.12654402 383.11240729 C-0.12918771 380.87379192 -0.12470812 378.63524862 -0.12025452 376.39663696 C-0.12069208 374.77845238 -0.12156924 373.16026787 -0.12284851 371.54208374 C-0.12509245 367.08806297 -0.12107668 362.63406622 -0.11607273 358.1800485 C-0.11170949 353.30596777 -0.11316712 348.43188816 -0.11389065 343.55780602 C-0.11442257 334.09416005 -0.10980271 324.63052356 -0.10338932 315.16688003 C-0.09619362 304.2215226 -0.0953948 293.27617087 -0.09460449 282.33081055 C-0.08935264 253.42887219 -0.07539155 224.52693596 -0.0625 195.625 C-0.041875 131.06875 -0.02125 66.5125 0 0 Z "
        fill="#F6E400" transform="translate(0,0)" />
    <path
        d="M0 0 C13.42070456 11.47280607 22.60588033 25.35903558 30.09472656 41.30883789 C31.08472656 41.30883789 32.07472656 41.30883789 33.09472656 41.30883789 C33.55621094 40.4490332 34.01769531 39.58922852 34.49316406 38.70336914 C49.6583831 11.00314874 72.6835502 -7.86795589 102.94970703 -17.09350586 C134.6108841 -25.91510402 170.93897687 -24.07023588 200.18457031 -8.42163086 C226.37494581 7.15197497 243.61867156 29.62148704 251.408158 59.06344211 C255.92939563 77.49417505 256.52377052 95.87259634 256.43530273 114.76538086 C256.43445427 117.34002167 256.43493586 119.9146632 256.43663025 122.48930359 C256.43818704 127.98325939 256.42894739 133.47710653 256.41191673 138.971035 C256.38731103 146.91386132 256.3796997 154.85663626 256.37595276 162.79949655 C256.36942165 175.69293942 256.34955231 188.58632466 256.32104492 201.47973633 C256.29341707 213.9885225 256.27222648 226.4972929 256.25952148 239.00610352 C256.25873331 239.77992944 256.25794514 240.55375537 256.25713309 241.35103057 C256.25321737 245.23391912 256.24942639 249.11680777 256.24569738 252.99969649 C256.21470576 285.10279474 256.15945983 317.20578554 256.09472656 349.30883789 C232.33472656 349.30883789 208.57472656 349.30883789 184.09472656 349.30883789 C184.07285278 338.12009766 184.07285278 338.12009766 184.05053711 326.70532227 C184.0016954 302.79100667 183.9382631 278.87675236 183.86574028 254.96249786 C183.85447322 251.24282117 183.84333459 247.52314411 183.83227539 243.8034668 C183.82896987 242.69276763 183.82896987 242.69276763 183.82559756 241.5596301 C183.79030358 229.59767627 183.76539498 217.6357225 183.74437954 205.67373604 C183.72255435 193.3836025 183.6894407 181.09353604 183.646025 168.80345964 C183.6196235 161.2305387 183.60184367 153.65770122 183.59538052 146.08473659 C183.58946251 140.26059692 183.56777694 134.43659487 183.54045105 128.61252022 C183.53170927 126.23589455 183.52794017 123.85924415 183.5297184 121.48260307 C183.54082974 99.76573458 182.62127696 77.23489028 167.09472656 60.30883789 C149.80346369 45.16604031 128.44925722 41.1050638 106.09472656 42.30883789 C91.56821302 43.63525532 78.00190383 48.43373761 67.09472656 58.30883789 C66.22847656 59.09258789 65.36222656 59.87633789 64.46972656 60.68383789 C49.91454664 76.77114201 43.95937636 95.98807692 43.93650818 117.45812988 C43.92910121 118.95071249 43.92910121 118.95071249 43.92154461 120.47344828 C43.90624072 123.7929255 43.89782833 127.11238349 43.8894043 130.43188477 C43.87982018 132.81727262 43.86980979 135.20265879 43.85940552 137.58804321 C43.8352086 143.38356013 43.81544522 149.17907985 43.79765277 154.97461969 C43.77669994 161.7212774 43.75025594 168.46791026 43.7234813 175.21454698 C43.67588234 187.24498835 43.63259744 199.27544118 43.59204102 211.3059082 C43.55264684 222.98885998 43.51121128 234.67180159 43.46704102 246.35473633 C43.46295461 247.43586304 43.46295461 247.43586304 43.45878565 248.5388307 C43.44510552 252.15481099 43.43138538 255.77079113 43.41764534 259.3867712 C43.30380153 289.36077335 43.19776316 319.33479608 43.09472656 349.30883789 C19.33472656 349.30883789 -4.42527344 349.30883789 -28.90527344 349.30883789 C-28.92714722 337.96806885 -28.92714722 337.96806885 -28.94946289 326.39819336 C-28.99828539 302.17002927 -29.06171247 277.94192436 -29.13425972 253.71382039 C-29.14552704 249.94650233 -29.15666562 246.17918391 -29.16772461 242.41186523 C-29.17103013 241.28692137 -29.17103013 241.28692137 -29.17440244 240.13925137 C-29.20971431 228.01751639 -29.23461286 215.89578147 -29.25562046 203.77401422 C-29.27743131 191.32342902 -29.31053159 178.8729102 -29.353975 166.42238152 C-29.38040099 158.74811366 -29.39816288 151.0739284 -29.40461948 143.39961733 C-29.41052821 137.50152125 -29.43219183 131.60354678 -29.45954895 125.70550919 C-29.46830474 123.29579216 -29.47205689 120.88605064 -29.4702816 118.47631836 C-29.4592256 96.53419018 -31.1240149 76.18569341 -46.90527344 59.30883789 C-62.77444612 45.89826942 -82.37005716 40.62402229 -102.90527344 42.30883789 C-117.22015746 44.22243379 -128.66480299 49.35941874 -139.90527344 58.30883789 C-140.52917969 58.76774414 -141.15308594 59.22665039 -141.79589844 59.69946289 C-156.14416189 70.82942426 -164.73008609 89.54572374 -167.16805214 107.21313852 C-167.85564503 112.93080519 -168.05715362 118.55731163 -168.06349182 124.31263733 C-168.0684298 125.27996196 -168.07336778 126.24728659 -168.07845539 127.24392408 C-168.09373154 130.46355845 -168.10216404 133.68317303 -168.1105957 136.90283203 C-168.12018201 139.21940279 -168.13019253 141.53597182 -168.14059448 143.85253906 C-168.16756808 150.12658835 -168.1886184 156.40064511 -168.20859647 162.67472005 C-168.23050268 169.23705347 -168.25786865 175.79936408 -168.28465271 182.36167908 C-168.32901455 193.37131697 -168.3697001 204.3809643 -168.40795898 215.390625 C-168.44736322 226.72722284 -168.48880114 238.06381026 -168.53295898 249.40039062 C-168.53568326 250.09997007 -168.53840753 250.79954952 -168.54121435 251.52032835 C-168.55489464 255.03014952 -168.56861476 258.53997052 -168.58235466 262.04979146 C-168.69616755 291.13611894 -168.80221607 320.22247007 -168.90527344 349.30883789 C-192.66527344 349.30883789 -216.42527344 349.30883789 -240.90527344 349.30883789 C-240.90527344 228.52883789 -240.90527344 107.74883789 -240.90527344 -16.69116211 C-218.13527344 -16.69116211 -195.36527344 -16.69116211 -171.90527344 -16.69116211 C-171.90527344 2.77883789 -171.90527344 22.24883789 -171.90527344 42.30883789 C-168.58546571 41.58136188 -168.58546571 41.58136188 -167.17871094 38.13305664 C-166.54074182 36.75652857 -165.90827629 35.37744126 -165.28027344 33.99633789 C-153.30938075 9.04495916 -132.28661024 -7.26386982 -106.59277344 -16.50366211 C-71.56433956 -27.33795305 -28.94027484 -23.88817035 0 0 Z "
        fill="#F6E400" transform="translate(1869.9052734375,212.691162109375)" />
    <path
        d="M0 0 C24.75 0 49.5 0 75 0 C76.34707031 5.09695312 77.69414062 10.19390625 79.08203125 15.4453125 C84.81117191 37.12162078 90.54222154 58.7974242 96.27404785 80.47302246 C97.41952656 84.80479575 98.56495083 89.13658343 99.71032715 93.46838379 C103.13173515 106.40797304 106.55405389 119.34732096 109.97747803 132.28637695 C111.11728258 136.59440889 112.2567905 140.90251913 113.39605713 145.21069336 C119.04188108 166.55954297 124.6960834 187.90595231 130.41678429 209.23487854 C131.14473075 211.94923469 131.87211414 214.6637411 132.59931946 217.3782959 C133.06660124 219.12231945 133.53390138 220.86633808 134.0012207 222.61035156 C134.22718335 223.4536351 134.453146 224.29691864 134.685956 225.16575623 C135.99886961 230.06319547 137.31654846 234.95932172 138.63792992 239.85448265 C139.43541109 242.81242516 140.22896416 245.77141107 141.02148438 248.73068619 C141.38503789 250.0845552 141.75035528 251.43795201 142.11758423 252.7908287 C142.61376296 254.61925747 143.10333115 256.44947637 143.5925293 258.27978516 C143.86638962 259.29561676 144.14024994 260.31144836 144.42240906 261.35806274 C145 264 145 264 145 268 C146.32 268 147.64 268 149 268 C149.13297485 266.97294952 149.26594971 265.94589905 149.4029541 264.88772583 C149.93430736 261.42776436 150.6478132 258.17369353 151.55273438 254.79638672 C151.87341385 253.59169739 152.19409332 252.38700806 152.52449036 251.14581299 C152.88082991 249.8237495 153.23725273 248.50170846 153.59375 247.1796875 C153.97179112 245.76593975 154.34948171 244.35209823 154.72685242 242.93817139 C155.76124735 239.06680486 156.8007863 235.19683595 157.84124374 231.32709503 C158.96123995 227.15812188 160.07658392 222.98790388 161.19262695 218.81787109 C163.87098358 208.81463555 166.55725766 198.813533 169.2443924 188.81265259 C170.49472228 184.15845964 171.74414361 179.50402283 172.99365234 174.84960938 C178.67960035 153.67117668 184.37343421 132.49487024 190.07124329 111.31962585 C194.09909193 96.35037158 198.12443314 81.38044438 202.1484375 66.41015625 C202.44088411 65.32218498 202.73333073 64.23421371 203.03463936 63.11327362 C204.48004231 57.73598525 205.92540962 52.3586873 207.37075806 46.98138428 C210.05034137 37.01227102 212.73027162 27.04325102 215.41015625 17.07421875 C217.68212891 8.62248047 217.68212891 8.62248047 220 0 C244.75 0 269.5 0 295 0 C296.58683594 5.98382813 298.17367187 11.96765625 299.80859375 18.1328125 C310.65601318 59.03372104 321.50707841 99.93366339 332.37969971 140.82788086 C333.41737008 144.73080231 334.4547511 148.63380048 335.49188232 152.53686523 C340.6651134 172.00456906 345.84863337 191.46931593 351.08690453 210.91963387 C351.77864385 213.48865044 352.46979111 216.05782551 353.16072083 218.62705994 C353.60592114 220.2823806 354.05112675 221.93769983 354.49633789 223.59301758 C354.71205853 224.39513766 354.92777918 225.19725775 355.15003681 226.0236845 C356.40300019 230.68055344 357.66066639 235.33611952 358.92205811 239.99071217 C359.6827224 242.80127603 360.43941025 245.61289913 361.19503403 248.42482185 C361.70693726 250.32447978 362.22400821 252.22274281 362.74124146 254.12095642 C363.04198578 255.24264725 363.3427301 256.36433807 363.65258789 257.52001953 C363.91471573 258.4889212 364.17684357 259.45782288 364.44691467 260.45608521 C365 263 365 263 365 267 C366.32 267 367.64 267 369 267 C369.12376511 266.00913391 369.24753021 265.01826782 369.37504578 263.99737549 C369.95821845 259.93539269 370.9396681 256.00243535 371.99926758 252.04199219 C372.20181813 251.27220158 372.40436869 250.50241096 372.61305714 249.70929337 C373.28642679 247.15413678 373.96544786 244.60051845 374.64453125 242.046875 C375.12641511 240.2233122 375.60796451 238.39966099 376.08920288 236.57592773 C377.38799123 231.6582128 378.69180155 226.74184216 379.99663925 221.82572937 C381.09165601 217.69760429 382.18373509 213.56870452 383.27578068 209.43979263 C392.00843115 176.42325026 400.80113841 143.42270169 409.61535835 110.42785645 C414.92778291 90.53990555 420.21376517 70.64492496 425.5 50.75 C425.9564916 49.03202298 426.4129837 47.31404609 426.86947632 45.59606934 C427.09065219 44.76367989 427.31182806 43.93129044 427.53970623 43.07367706 C427.97682628 41.42859029 428.41395047 39.78350463 428.85107899 38.1384201 C429.85269394 34.36892493 430.85423354 30.59940978 431.85554504 26.82983398 C432.215545 25.47477196 432.57554557 24.1197101 432.93554688 22.76464844 C433.23940308 21.62074646 433.54325928 20.47684448 433.85632324 19.29827881 C435.56813286 12.86478705 437.28465344 6.43254962 439 0 C463.42 0 487.84 0 513 0 C512.30339536 5.57283713 511.58020066 9.99318404 510.02001953 15.25097656 C509.81879518 15.9354955 509.61757082 16.62001444 509.41024876 17.32527637 C508.74031491 19.5988429 508.06155423 21.86967387 507.3828125 24.140625 C506.89769223 25.78079241 506.41315501 27.42113237 505.92915344 29.06163025 C504.8848732 32.59695402 503.83674954 36.13110666 502.78561401 39.66439819 C501.09690964 45.34120829 499.41696698 51.0205878 497.73852539 56.70043945 C495.96931164 62.68615199 494.19961183 68.67171795 492.42707825 74.65644836 C486.62734004 94.23957722 480.8716658 113.8355351 475.12469482 133.4342041 C473.42455634 139.23207791 471.72331537 145.02962791 470.02197266 150.82714844 C462.18620758 177.53031586 454.3659232 204.23799994 446.55264282 230.94775391 C437.19728371 262.92880357 427.816291 294.90231016 418.42747688 326.87355328 C417.30221642 330.70545452 416.17712897 334.53740655 415.05205917 338.36936378 C414.27840544 341.00408825 413.50446028 343.63872699 412.73049927 346.27336121 C412.26188781 347.86932978 411.79328961 349.46530224 411.32470703 351.0612793 C411.1170723 351.76776108 410.90943756 352.47424286 410.69551086 353.20213318 C409.44488691 357.46308831 408.22001135 361.72996029 407 366 C382.58 366 358.16 366 333 366 C329.720625 354.305625 326.44125 342.61125 323.0625 330.5625 C320.94026429 322.99604879 318.81798398 315.42961021 316.6953125 307.86328125 C316.4269672 306.9067547 316.1586219 305.95022816 315.88214493 304.96471596 C309.73659539 283.05906228 303.58900872 261.15398102 297.4375 239.25 C297.0517235 237.87630816 297.0517235 237.87630816 296.65815353 236.47486496 C290.66180828 215.12342495 284.65789466 193.77413965 278.63671875 172.4296875 C278.25203462 171.0660054 278.25203462 171.0660054 277.85957909 169.67477417 C275.40743773 160.98256189 272.95442858 152.29059523 270.49948978 143.59917259 C269.61492628 140.46726663 268.73070395 137.3352644 267.84652138 134.20325089 C267.25003955 132.09095095 266.65301263 129.97880565 266.05595398 127.8666687 C265.03286408 124.24568826 264.01632402 120.62288546 263 117 C262.54086212 115.38348541 262.54086212 115.38348541 262.07244873 113.73431396 C261.7963678 112.74932922 261.52028687 111.76434448 261.23583984 110.74951172 C260.99554047 109.89880096 260.75524109 109.04809021 260.50765991 108.17160034 C260 106 260 106 260 103 C258.02 103 256.04 103 254 103 C253.90565674 103.61396637 253.81131348 104.22793274 253.71411133 104.86050415 C252.31522501 113.25948748 250.04744084 121.35683487 247.6875 129.5234375 C247.24593177 131.06689247 246.80490268 132.61050177 246.36436462 134.1542511 C245.4148532 137.47850072 244.46236944 140.80187791 243.50753784 144.12460327 C241.16271573 152.28623989 238.83519439 160.45281784 236.50712395 168.61924553 C235.96031539 170.53723916 235.41333297 172.45518323 234.86618233 174.3730793 C228.74962901 195.81568735 222.74248781 217.28844969 216.75218964 238.76661301 C214.31671529 247.4984601 211.87931363 256.22976944 209.44140625 264.9609375 C209.17546661 265.9134609 208.90952698 266.86598431 208.63552856 267.84737206 C199.49396571 300.58472058 190.24002439 333.29031366 181 366 C156.58 366 132.16 366 107 366 C105.36675781 360.47121094 103.73351563 354.94242188 102.05078125 349.24609375 C91.43420665 313.30855945 80.81700625 277.37121191 70.1875 241.4375 C69.97661869 240.72460186 69.76573738 240.01170372 69.54846573 239.27720261 C67.63534243 232.80981341 65.72214006 226.34244761 63.80885315 219.87510681 C60.79540736 209.6889734 57.78234263 199.50272733 54.76953125 189.31640625 C54.55232422 188.5820315 54.33511719 187.84765675 54.11132812 187.09102821 C52.13724315 180.41666005 50.16318359 173.74228437 48.18914795 167.06790161 C46.88001662 162.64161844 45.57087285 158.21533894 44.26171875 153.7890625 C44.04554901 153.05818609 43.82937927 152.32730968 43.60665894 151.57428551 C41.18029379 143.37072364 38.75371124 135.16722615 36.32666016 126.96386719 C36.105461 126.21621566 35.88426184 125.46856413 35.65635967 124.69825649 C34.53906465 120.92183532 33.42172674 117.14542683 32.30433655 113.36903381 C30.10509411 105.93607366 27.90671154 98.50286095 25.71020508 91.0690918 C24.85112475 88.16193168 23.99198448 85.25478928 23.1328125 82.34765625 C22.92163725 81.63306181 22.710462 80.91846737 22.4928875 80.18221855 C19.67113352 70.63496884 16.83898379 61.09086791 13.99781799 51.54937744 C12.49962259 46.51756824 11.0049995 41.48470028 9.5113821 36.45153046 C8.31326289 32.41519853 7.11052679 28.38028178 5.90423584 24.346385 C4.99824493 21.31163184 4.09927608 18.27479854 3.19921875 15.23828125 C2.87222992 14.15026718 2.54524109 13.06225311 2.20834351 11.94126892 C1.91489044 10.94656082 1.62143738 9.95185272 1.3190918 8.92700195 C1.06266403 8.0663765 0.80623627 7.20575104 0.54203796 6.31904602 C0 4 0 4 0 0 Z "
        fill="#F6E400" transform="translate(2954,196)" />
    <path
        d="M0 0 C36.78213684 32.32524839 52.31407153 83.02707243 55.73828125 130.42578125 C59.12848496 188.28139445 49.47930118 250.66311554 10.0546875 295.52734375 C-1.66755052 308.40972079 -14.52981965 318.38648337 -29.9453125 326.52734375 C-31.07195312 327.13578125 -32.19859375 327.74421875 -33.359375 328.37109375 C-65.44386465 344.59119051 -106.84053188 346.17417905 -140.9453125 335.52734375 C-168.36458217 325.60116533 -188.06129537 305.48166818 -201.76171875 280.21484375 C-202.92205125 278.20448719 -202.92205125 278.20448719 -205.9453125 277.52734375 C-205.9453125 341.54734375 -205.9453125 405.56734375 -205.9453125 471.52734375 C-229.7053125 471.52734375 -253.4653125 471.52734375 -277.9453125 471.52734375 C-277.9453125 305.53734375 -277.9453125 139.54734375 -277.9453125 -31.47265625 C-254.8453125 -31.47265625 -231.7453125 -31.47265625 -207.9453125 -31.47265625 C-207.9453125 -12.00265625 -207.9453125 7.46734375 -207.9453125 27.52734375 C-201.77145052 25.46938976 -200.62692847 24.38453039 -197.6953125 19.21484375 C-196.91992403 17.93732566 -196.13984378 16.66264527 -195.35546875 15.390625 C-194.95859863 14.74432129 -194.56172852 14.09801758 -194.15283203 13.43212891 C-179.71236146 -9.34679374 -157.44591028 -27.15949445 -130.9453125 -33.47265625 C-83.17720552 -43.76366488 -36.98941747 -31.05344994 0 0 Z M-179.0703125 53.77734375 C-202.00879254 80.45428834 -208.18647215 117.11076057 -208.1328125 151.15234375 C-208.13220825 151.8614389 -208.131604 152.57053406 -208.13098145 153.30111694 C-208.10660456 163.84337478 -207.80715629 174.12416008 -205.9453125 184.52734375 C-205.81108887 185.28225098 -205.67686523 186.0371582 -205.53857422 186.81494141 C-199.92032673 217.64375237 -187.31705269 248.85267762 -160.75537109 267.37939453 C-140.92545449 280.40541687 -116.03339019 283.2432779 -93.05004883 278.93798828 C-70.26161272 274.18697673 -52.62962253 260.68720019 -39.9453125 241.52734375 C-39.28144531 240.52960938 -38.61757813 239.531875 -37.93359375 238.50390625 C-13.93603826 199.56091837 -11.50338437 146.97137142 -21.85742188 103.36376953 C-28.34525585 77.62961897 -41.49813875 51.72081117 -64.79394531 37.39013672 C-102.15194456 15.89095598 -149.71788557 22.53674901 -179.0703125 53.77734375 Z "
        fill="#F6E400" transform="translate(4193.9453125,227.47265625)" />
    <path
        d="M0 0 C0.73347656 0.67417969 1.46695313 1.34835938 2.22265625 2.04296875 C3.46208984 3.16251953 3.46208984 3.16251953 4.7265625 4.3046875 C11.28062854 10.51854248 16.42742982 17.43570003 21.22265625 25.04296875 C21.58133789 25.60532227 21.94001953 26.16767578 22.30957031 26.74707031 C39.06688659 53.34911999 39.54900913 84.90348028 39.44970703 115.3762207 C39.4491414 117.84234106 39.44946244 120.30846175 39.45059204 122.77458191 C39.45104358 128.0371678 39.44546965 133.29970852 39.43411636 138.56228065 C39.41771323 146.17063987 39.4126384 153.77897525 39.41014038 161.38735022 C39.40578622 173.73782079 39.3925397 186.08826462 39.37353516 198.4387207 C39.35511685 210.42081572 39.34098966 222.40290341 39.33251953 234.38500977 C39.33199408 235.12624147 39.33146864 235.86747317 39.33092727 236.63116644 C39.32831679 240.35050088 39.32578947 244.06983538 39.32330346 247.78916991 C39.30264208 278.54045958 39.26581127 309.29170006 39.22265625 340.04296875 C16.12265625 340.04296875 -6.97734375 340.04296875 -30.77734375 340.04296875 C-30.77734375 323.54296875 -30.77734375 307.04296875 -30.77734375 290.04296875 C-31.76734375 290.04296875 -32.75734375 290.04296875 -33.77734375 290.04296875 C-34.19693359 291.15478516 -34.19693359 291.15478516 -34.625 292.2890625 C-40.21861647 305.65685778 -52.43303021 316.52700586 -63.77734375 325.04296875 C-64.78539063 325.80480469 -65.7934375 326.56664062 -66.83203125 327.3515625 C-95.57722051 348.19006768 -133.07268535 351.90327934 -167.48632812 346.44091797 C-194.43518363 341.75990406 -218.48391863 331.73166715 -237.77734375 312.04296875 C-238.93556641 310.86541016 -238.93556641 310.86541016 -240.1171875 309.6640625 C-261.78348609 286.41749645 -265.59355558 256.73970202 -264.91796875 226.30029297 C-264.04743422 206.1359324 -256.79909899 187.46827227 -243.77734375 172.04296875 C-243.308125 171.44097656 -242.83890625 170.83898437 -242.35546875 170.21875 C-210.70987465 130.66175737 -143.73472838 128.40154859 -97.77734375 123.04296875 C-92.51057051 122.46085675 -87.23777332 121.94097116 -81.96484375 121.41796875 C-57.57514412 119.25489798 -57.57514412 119.25489798 -37.05859375 107.17578125 C-31.01796671 97.12245196 -33.45527899 83.78878334 -35.80078125 72.9140625 C-38.09210431 63.8312579 -41.59733429 56.09736804 -47.77734375 49.04296875 C-48.30457031 48.388125 -48.83179687 47.73328125 -49.375 47.05859375 C-59.77557022 35.26366137 -76.62140251 30.40190133 -91.77734375 29.04296875 C-117.48467856 27.74256848 -142.94950867 30.61279499 -162.9387207 48.46020508 C-165.61156922 50.92894378 -168.20804992 53.46707973 -170.77734375 56.04296875 C-171.39480469 56.64882813 -172.01226563 57.2546875 -172.6484375 57.87890625 C-178.23861006 63.84781679 -182.14293479 71.77415082 -185.77734375 79.04296875 C-193.86441551 77.66510752 -201.83244085 75.9353571 -209.8125 74.0390625 C-211.0129747 73.75571548 -212.2134494 73.47236847 -213.45030212 73.18043518 C-215.9658123 72.58594908 -218.48099101 71.99005875 -220.99584961 71.39282227 C-224.85891976 70.47594115 -228.72332015 69.56483108 -232.58789062 68.65429688 C-235.0378413 68.07456046 -237.48771396 67.49449424 -239.9375 66.9140625 C-241.67484154 66.5046769 -241.67484154 66.5046769 -243.44728088 66.08702087 C-244.51276657 65.83328201 -245.57825226 65.57954315 -246.67602539 65.31811523 C-248.08519981 64.98407936 -248.08519981 64.98407936 -249.52284241 64.64329529 C-251.77734375 64.04296875 -251.77734375 64.04296875 -253.77734375 63.04296875 C-249.59313565 38.01877693 -228.44472471 13.73756059 -208.77734375 -0.95703125 C-152.44182231 -39.80668371 -54.22143095 -46.59508904 0 0 Z M-38.04296875 164.3359375 C-44.03215625 167.34004125 -50.00446171 168.91963652 -56.52734375 170.35546875 C-57.81431152 170.64470215 -59.1012793 170.93393555 -60.42724609 171.23193359 C-76.55915134 174.7305718 -92.95484991 176.87902637 -109.29980469 179.11450195 C-151.12753983 184.71579153 -151.12753983 184.71579153 -185.77734375 207.04296875 C-194.68856689 219.03095692 -196.34617902 233.98332837 -194.3046875 248.375 C-192.7876246 255.4515988 -189.94096222 261.15647368 -185.77734375 267.04296875 C-185.11605469 267.99816406 -185.11605469 267.99816406 -184.44140625 268.97265625 C-174.98594785 281.27021776 -158.40535542 286.53781226 -143.77734375 289.04296875 C-143.02066406 289.17574219 -142.26398437 289.30851562 -141.484375 289.4453125 C-114.11554801 293.3097697 -85.10589994 286.9456359 -62.90234375 270.29296875 C-51.10101983 261.01663793 -42.69188942 248.81304326 -37.52734375 234.79296875 C-37.28081055 234.13852783 -37.03427734 233.48408691 -36.78027344 232.80981445 C-31.56124934 217.78617144 -32.53510928 201.82651288 -32.65234375 186.16796875 C-32.66239442 183.82292049 -32.67151657 181.47786806 -32.6796875 179.1328125 C-32.70153366 173.43610559 -32.73484556 167.73955709 -32.77734375 162.04296875 C-34.66789156 162.04296875 -36.42412752 163.4589838 -38.04296875 164.3359375 Z "
        fill="#F6E400" transform="translate(3782.77734375,221.95703125)" />
    <path
        d="M0 0 C37.99830389 34.99225068 54.68767846 85.92915208 57.01953125 136.35546875 C59.12735888 192.50187726 44.7460493 247.48017841 5.92431641 289.42285156 C-22.84769295 319.82712763 -62.00421597 334.48979794 -103.32177734 336.26220703 C-148.5876873 337.44048252 -189.70216332 328.08350488 -224.66796875 298.10546875 C-225.951875 297.02458984 -225.951875 297.02458984 -227.26171875 295.921875 C-233.49813072 290.52275908 -238.62799749 284.61989969 -243.66796875 278.10546875 C-244.374375 277.23792969 -245.08078125 276.37039063 -245.80859375 275.4765625 C-263.80551329 252.72146459 -274.75906005 225.60908462 -280.91796875 197.48046875 C-281.06911133 196.80250244 -281.22025391 196.12453613 -281.37597656 195.42602539 C-284.59195374 179.74359944 -285.0431047 163.93002751 -284.98046875 147.98046875 C-284.9783136 146.99068024 -284.97615845 146.00089172 -284.97393799 144.98110962 C-284.78567015 91.04890334 -268.34555079 40.02098712 -229.7734375 1.14453125 C-167.84152312 -57.99155115 -62.80606535 -56.24046863 0 0 Z M-175.66796875 42.10546875 C-176.42722656 42.86601562 -177.18648437 43.6265625 -177.96875 44.41015625 C-200.55525938 68.20596061 -211.66925925 104.92694994 -211.87109375 137.27734375 C-211.87810806 138.03340912 -211.88512238 138.78947449 -211.89234924 139.56845093 C-211.90976665 141.9975181 -211.91620231 144.42634141 -211.91796875 146.85546875 C-211.91864349 147.68560486 -211.91931824 148.51574097 -211.92001343 149.37103271 C-211.9038966 161.84304617 -211.47303408 173.90316327 -208.66796875 186.10546875 C-208.49104492 186.89469727 -208.31412109 187.68392578 -208.13183594 188.49707031 C-201.52103257 217.25806114 -188.58667358 246.23698893 -163.10546875 263.04296875 C-140.74240074 276.18645523 -114.78858172 279.52825866 -89.59765625 273.61035156 C-84.40804855 272.25254428 -79.53814554 270.33311187 -74.66796875 268.10546875 C-73.73597656 267.68652344 -72.80398437 267.26757812 -71.84375 266.8359375 C-63.92961568 262.91838456 -57.82973772 257.3006915 -51.66796875 251.10546875 C-50.77722656 250.21472656 -49.88648437 249.32398438 -48.96875 248.40625 C-22.9241989 221.08539624 -15.22890509 178.91901474 -15.6875 142.41796875 C-16.80912454 103.47800006 -28.83507521 64.92705628 -57.13671875 37.32421875 C-61.00787682 33.93098143 -65.09568603 31.44069904 -69.66796875 29.10546875 C-70.5084375 28.66589844 -71.34890625 28.22632813 -72.21484375 27.7734375 C-104.6706777 11.88160165 -149.83808616 15.88619095 -175.66796875 42.10546875 Z "
        fill="#F6E400" transform="translate(2488.66796875,232.89453125)" />
    <path
        d="M0 0 C23.76 0 47.52 0 72 0 C72.029729 10.52285889 72.029729 10.52285889 72.06005859 21.25830078 C72.12496489 43.74414254 72.19950395 66.22994599 72.28005161 88.71573664 C72.2925694 92.21267182 72.30500234 95.7096073 72.31738281 99.20654297 C72.31984881 99.90267448 72.3223148 100.59880599 72.32485552 101.31603239 C72.36450138 112.56478411 72.39728474 123.81354578 72.42749982 135.06232633 C72.45869302 146.61793152 72.49748064 158.17349066 72.54279006 169.72904956 C72.56797971 176.21400872 72.58978312 182.69893849 72.60334396 189.18393326 C72.61623282 195.29552611 72.63836017 201.40701782 72.66738319 207.51855469 C72.67640583 209.75411761 72.68213669 211.98969679 72.68421364 214.22527695 C72.71206856 239.66754056 75.16956911 264.44977897 93.7578125 283.7890625 C94.49773437 284.51867187 95.23765625 285.24828125 96 286 C96.95519531 286.97066406 96.95519531 286.97066406 97.9296875 287.9609375 C111.32316307 300.68751802 130.7871993 304.50721779 148.6796875 304.2109375 C171.98140243 303.36188716 193.08808599 292.79817299 209 276 C224.79901143 258.83231569 230.13166392 237.36426044 230.15821838 214.4138031 C230.16315636 213.49139755 230.16809434 212.568992 230.17318195 211.61863476 C230.18844816 208.55101535 230.19688784 205.48341669 230.20532227 202.41577148 C230.21490936 200.20757365 230.22491992 197.99937762 230.23532104 195.79118347 C230.26228613 189.81257983 230.28334102 183.83396837 230.30332303 177.85533786 C230.32523454 171.60130317 230.3525979 165.34729237 230.37937927 159.09327698 C230.42357523 148.60150207 230.46442211 138.10971793 230.50268555 127.61791992 C230.54209341 116.81485029 230.58353217 106.01179156 230.62768555 95.20874023 C230.63177196 94.20865649 230.63177196 94.20865649 230.63594092 93.18836903 C230.64962127 89.84337264 230.66334354 86.49837643 230.67708123 83.15338027 C230.79079416 55.43560815 230.89693516 27.71781391 231 0 C254.76 0 278.52 0 303 0 C303 120.78 303 241.56 303 366 C279.57 366 256.14 366 232 366 C232 345.21 232 324.42 232 303 C229.03291008 305.96708992 227.32503954 308.86720999 225.375 312.5 C221.57736835 319.30664574 217.26232432 325.22176154 212 331 C211.50258301 331.5465625 211.00516602 332.093125 210.49267578 332.65625 C188.79064547 356.19031253 160.574413 369.6208225 128.49755859 371.11669922 C92.95627358 372.42150256 62.47934264 362.6709249 35.71875 338.98046875 C13.69474256 318.08092648 4.41512088 288.43620323 1 259 C0.91163156 258.26469181 0.82326311 257.52938362 0.73221684 256.77179337 C-0.40612765 245.53849848 -0.13185712 234.24010471 -0.11352539 222.96386719 C-0.11324301 220.52863059 -0.11340225 218.0933939 -0.1139679 215.65815735 C-0.11419479 210.43471545 -0.11137897 205.21128484 -0.10573006 199.98784637 C-0.09756825 192.43583245 -0.09499506 184.88382455 -0.09374207 177.33180669 C-0.09155887 165.07618149 -0.08491871 152.82056298 -0.07543945 140.56494141 C-0.06624634 128.66682977 -0.05917481 116.76871995 -0.05493164 104.87060547 C-0.05466892 104.13597024 -0.05440619 103.40133502 -0.05413551 102.64443812 C-0.05283038 98.95862014 -0.05156669 95.27280215 -0.05032361 91.58698416 C-0.03997381 61.05798358 -0.02154785 30.52899531 0 0 Z "
        fill="#F6E400" transform="translate(1231,196)" />
    <path
        d="M0 0 C1.44826172 1.32451172 1.44826172 1.32451172 2.92578125 2.67578125 C3.73660156 3.40410156 4.54742188 4.13242188 5.3828125 4.8828125 C21.21311159 19.82594947 31.09186461 39.97109669 36.92578125 60.67578125 C36.92578125 61.33578125 36.92578125 61.99578125 36.92578125 62.67578125 C29.31496274 64.22623391 21.69841851 65.74712068 14.07824707 67.25091553 C12.58590021 67.54548328 11.09363701 67.8404751 9.60144043 68.13580322 C4.60824509 69.12331504 -0.38687714 70.10017585 -5.38442993 71.06539917 C-7.05100963 71.38867437 -8.71701145 71.71494323 -10.38241577 72.04421997 C-12.7430353 72.51025909 -15.10552384 72.96536002 -17.46875 73.41796875 C-18.53290634 73.6316082 -18.53290634 73.6316082 -19.61856079 73.8495636 C-26.13873264 75.07591653 -26.13873264 75.07591653 -29.07421875 73.67578125 C-30.51611721 71.17847258 -31.71727147 68.79537835 -32.88671875 66.17578125 C-35.98194915 59.66037505 -39.18006009 54.03790727 -44.07421875 48.67578125 C-44.88632813 47.76054687 -45.6984375 46.8453125 -46.53515625 45.90234375 C-58.68872213 32.91300257 -74.77320206 27.50449135 -92.36865234 26.55151367 C-109.90514472 25.9783213 -126.98441627 27.13862272 -143.07421875 34.67578125 C-143.87988281 35.04445313 -144.68554688 35.413125 -145.515625 35.79296875 C-156.39328952 41.2790952 -164.840228 49.85491306 -168.88671875 61.36328125 C-171.38238316 70.64715286 -171.18506734 80.89618319 -167.07421875 89.67578125 C-158.60854438 103.73820701 -144.39773892 110.69536587 -129.17114258 115.10180664 C-128.43280843 115.31688653 -127.69447428 115.53196642 -126.93376637 115.75356388 C-119.91743998 117.76904523 -112.84731766 119.51145205 -105.7392025 121.16937065 C-103.50068103 121.69177118 -101.26374257 122.22055788 -99.02705383 122.75074768 C-93.47611273 124.06543016 -87.92312662 125.37136592 -82.36950684 126.67468262 C-33.87324153 138.0562313 -33.87324153 138.0562313 -18.13671875 145.05078125 C-17.26684326 145.43161865 -16.39696777 145.81245605 -15.50073242 146.20483398 C7.96027858 156.71447822 28.76689668 174.01701762 38.30078125 198.36328125 C47.26758486 223.03932196 46.20303581 251.70860074 35.20703125 275.53125 C20.59759357 305.26367852 -7.41296865 325.5546123 -38.1328125 336.45458984 C-51.19404759 340.85813853 -64.37763024 343.35479048 -78.07421875 344.67578125 C-79.16863281 344.78792969 -80.26304687 344.90007812 -81.390625 345.015625 C-129.63360665 349.09643341 -179.95405219 342.87392734 -218.26171875 311.09375 C-236.78258575 294.75937425 -248.825216 271.99626367 -253.07421875 247.67578125 C-253.07421875 246.35578125 -253.07421875 245.03578125 -253.07421875 243.67578125 C-240.41495574 241.34988429 -227.7168854 239.34963699 -214.98583984 237.45874023 C-211.78676684 236.98270829 -208.58869715 236.50028303 -205.390625 236.01757812 C-203.34250524 235.71185534 -201.29433015 235.40650286 -199.24609375 235.1015625 C-198.29716248 234.95785721 -197.3482312 234.81415192 -196.37054443 234.66609192 C-195.4848175 234.53562973 -194.59909058 234.40516754 -193.68652344 234.27075195 C-192.91395203 234.15544632 -192.14138062 234.04014069 -191.34539795 233.92134094 C-188.90559857 233.65755005 -186.52635058 233.63455374 -184.07421875 233.67578125 C-183.71070312 234.71476562 -183.3471875 235.75375 -182.97265625 236.82421875 C-176.5253159 254.88024154 -167.41776062 269.29512378 -149.85546875 278.33203125 C-141.39669607 282.21849437 -133.25323067 284.27806807 -124.07421875 285.67578125 C-123.24921875 285.80726563 -122.42421875 285.93875 -121.57421875 286.07421875 C-97.16468491 289.21016581 -70.58505879 285.97793457 -50.07421875 271.67578125 C-39.98081432 263.67427411 -32.93529018 255.71989795 -31.07421875 242.67578125 C-30.9384573 234.99677437 -31.49565101 227.56226874 -35.07421875 220.67578125 C-35.40164062 220.02351562 -35.7290625 219.37125 -36.06640625 218.69921875 C-44.54440505 203.55575882 -61.08997285 197.87733993 -76.82885742 193.33056641 C-89.74018587 189.7898169 -102.96093321 187.34855747 -116.07421875 184.67578125 C-161.96003977 175.32324098 -161.96003977 175.32324098 -179.88671875 167.36328125 C-180.75143799 166.98429688 -181.61615723 166.6053125 -182.50708008 166.21484375 C-194.77723999 160.70843486 -205.46526133 154.20966869 -215.07421875 144.67578125 C-215.94046875 143.85078125 -216.80671875 143.02578125 -217.69921875 142.17578125 C-218.48296875 141.35078125 -219.26671875 140.52578125 -220.07421875 139.67578125 C-220.6775 139.05574219 -221.28078125 138.43570313 -221.90234375 137.796875 C-240.14794745 118.3325764 -244.04343055 93.23376946 -243.22216797 67.52539062 C-241.82371839 40.59023634 -228.27888746 20.00782799 -209.26171875 1.98828125 C-188.0669991 -16.50285999 -160.48095065 -26.0499277 -133.07421875 -30.32421875 C-132.3255957 -30.4413623 -131.57697266 -30.55850586 -130.80566406 -30.67919922 C-85.90374006 -37.31490296 -34.90206263 -31.18365683 0 0 Z "
        fill="#F6E400" transform="translate(2861.07421875,223.32421875)" />
    <path
        d="M0 0 C24.75 0 49.5 0 75 0 C75 139.92 75 279.84 75 424 C147.6 424 220.2 424 295 424 C295 445.12 295 466.24 295 488 C197.65 488 100.3 488 0 488 C0 326.96 0 165.92 0 0 Z "
        fill="#F6E400" transform="translate(858,74)" />
</svg>